<svg width="24" height="12" viewBox="0 0 24 12" fill="none" xmlns="http://www.w3.org/2000/svg">
<path d="M8.28125 5.78906L11.6016 5.875C11.3828 7.59375 10.7865 8.92188 9.8125 9.85938C8.84375 10.7969 7.57812 11.2656 6.01562 11.2656C4.42708 11.2656 3.09635 10.7344 2.02344 9.67188C0.955729 8.60417 0.421875 7.28125 0.421875 5.70312C0.421875 4.11458 0.966146 2.77865 2.05469 1.69531C3.14844 0.611979 4.49479 0.0703125 6.09375 0.0703125C7.66667 0.0703125 8.97917 0.601562 10.0312 1.66406C10.7604 2.39844 11.276 3.42188 11.5781 4.73438L8.17969 4.96094C7.79948 3.79427 7.07812 3.21094 6.01562 3.21094C5.33854 3.21094 4.77865 3.44531 4.33594 3.91406C3.89844 4.38281 3.67969 4.97917 3.67969 5.70312C3.67969 6.40104 3.89583 6.97917 4.32812 7.4375C4.76042 7.89062 5.30729 8.11719 5.96875 8.11719C6.64062 8.11719 7.17448 7.91667 7.57031 7.51562C7.97135 7.11458 8.20833 6.53906 8.28125 5.78906ZM16.2734 3.39844V11H13.1016V0.335938H17.2344C19.0469 0.335938 20.4661 0.747396 21.4922 1.57031C22.7109 2.55469 23.3203 3.89062 23.3203 5.57812C23.3203 7.19271 22.7995 8.51042 21.7578 9.53125C20.7161 10.5521 19.375 11.0625 17.7344 11.0625C17.5417 11.0625 17.2266 11.0521 16.7891 11.0312V7.89844H17.2969C19.1458 7.89844 20.0703 7.125 20.0703 5.57812C20.0703 4.125 19.1615 3.39844 17.3438 3.39844H16.2734Z" fill="#FF9A00"/>
</svg>
